<svg width="34" height="25" viewBox="0 0 34 25" fill="none" xmlns="http://www.w3.org/2000/svg">
<path d="M3.4 25C2.465 25 1.66487 24.6943 0.9996 24.0828C0.3332 23.4703 0 22.7344 0 21.875V3.125C0 2.26562 0.3332 1.53021 0.9996 0.91875C1.66487 0.30625 2.465 0 3.4 0H30.6C31.535 0 32.3357 0.30625 33.0021 0.91875C33.6674 1.53021 34 2.26562 34 3.125V21.875C34 22.7344 33.6674 23.4703 33.0021 24.0828C32.3357 24.6943 31.535 25 30.6 25H3.4ZM17 14.0625L3.4 6.25V21.875H30.6V6.25L17 14.0625ZM17 10.9375L30.6 3.125H3.4L17 10.9375ZM3.4 6.25V3.125V21.875V6.25Z" fill="white"/>
</svg>
