<svg width="31" height="31" viewBox="0 0 31 31" fill="none" xmlns="http://www.w3.org/2000/svg">
<path d="M15.5 15.5C13.3687 15.5 11.5443 14.7411 10.0266 13.2234C8.50885 11.7057 7.75 9.88125 7.75 7.75C7.75 5.61875 8.50885 3.79427 10.0266 2.27656C11.5443 0.758855 13.3687 0 15.5 0C17.6313 0 19.4557 0.758855 20.9734 2.27656C22.4911 3.79427 23.25 5.61875 23.25 7.75C23.25 9.88125 22.4911 11.7057 20.9734 13.2234C19.4557 14.7411 17.6313 15.5 15.5 15.5ZM0 31V25.575C0 24.4771 0.282875 23.4676 0.848625 22.5467C1.41308 21.627 2.16354 20.925 3.1 20.4406C5.10208 19.4396 7.13646 18.6885 9.20312 18.1873C11.2698 17.6874 13.3687 17.4375 15.5 17.4375C17.6313 17.4375 19.7302 17.6874 21.7969 18.1873C23.8635 18.6885 25.8979 19.4396 27.9 20.4406C28.8365 20.925 29.5869 21.627 30.1514 22.5467C30.7171 23.4676 31 24.4771 31 25.575V31H0Z" fill="#FF9900"/>
</svg>
