<svg width="31" height="39" viewBox="0 0 31 39" fill="none" xmlns="http://www.w3.org/2000/svg">
<path d="M3.875 38.75C2.80938 38.75 1.89746 38.3709 1.13925 37.6127C0.37975 36.8532 0 35.9406 0 34.875V11.625C0 10.5594 0.37975 9.64746 1.13925 8.88925C1.89746 8.12975 2.80938 7.75 3.875 7.75H7.75C7.75 5.61875 8.50885 3.79427 10.0266 2.27656C11.5443 0.758854 13.3687 0 15.5 0C17.6313 0 19.4557 0.758854 20.9734 2.27656C22.4911 3.79427 23.25 5.61875 23.25 7.75H27.125C28.1906 7.75 29.1032 8.12975 29.8627 8.88925C30.6209 9.64746 31 10.5594 31 11.625V34.875C31 35.9406 30.6209 36.8532 29.8627 37.6127C29.1032 38.3709 28.1906 38.75 27.125 38.75H3.875ZM9.6875 17.4375C10.2365 17.4375 10.6969 17.2515 11.0689 16.8795C11.4396 16.5088 11.625 16.049 11.625 15.5V11.625H7.75V15.5C7.75 16.049 7.936 16.5088 8.308 16.8795C8.67871 17.2515 9.13854 17.4375 9.6875 17.4375ZM11.625 7.75H19.375C19.375 6.68437 18.9959 5.77246 18.2377 5.01425C17.4782 4.25475 16.5656 3.875 15.5 3.875C14.4344 3.875 13.5225 4.25475 12.7643 5.01425C12.0048 5.77246 11.625 6.68437 11.625 7.75ZM21.3125 17.4375C21.8615 17.4375 22.3219 17.2515 22.6939 16.8795C23.0646 16.5088 23.25 16.049 23.25 15.5V11.625H19.375V15.5C19.375 16.049 19.561 16.5088 19.933 16.8795C20.3037 17.2515 20.7635 17.4375 21.3125 17.4375Z" fill="#FF9900"/>
</svg>
