<svg width="31" height="31" viewBox="0 0 31 31" fill="none" xmlns="http://www.w3.org/2000/svg">
<path d="M20.4319 15.5C20.4319 16.4754 20.1426 17.4289 19.6007 18.24C19.0588 19.051 18.2886 19.6831 17.3874 20.0564C16.4862 20.4297 15.4946 20.5274 14.5379 20.3371C13.5812 20.1468 12.7025 19.6771 12.0127 18.9873C11.323 18.2976 10.8533 17.4188 10.663 16.4622C10.4727 15.5055 10.5704 14.5139 10.9437 13.6127C11.3169 12.7115 11.9491 11.9413 12.7601 11.3993C13.5711 10.8574 14.5246 10.5682 15.5001 10.5682C16.8068 10.5723 18.0589 11.0932 18.9829 12.0172C19.9069 12.9412 20.4278 14.1933 20.4319 15.5ZM30.912 8.71876V22.2813C30.912 24.5703 30.0027 26.7655 28.3841 28.3841C26.7656 30.0026 24.5703 30.9119 22.2813 30.9119H8.71882C6.42982 30.9119 4.23457 30.0026 2.616 28.3841C0.997436 26.7655 0.0881348 24.5703 0.0881348 22.2813V8.71876C0.0881348 6.42976 0.997436 4.23451 2.616 2.61594C4.23457 0.997375 6.42982 0.0880737 8.71882 0.0880737H22.2813C24.5703 0.0880737 26.7656 0.997375 28.3841 2.61594C30.0027 4.23451 30.912 6.42976 30.912 8.71876ZM22.8978 15.5C22.8978 14.0369 22.4639 12.6066 21.6511 11.39C20.8382 10.1735 19.6828 9.22531 18.3311 8.6654C16.9793 8.10548 15.4919 7.95898 14.0568 8.24442C12.6218 8.52987 11.3037 9.23443 10.2691 10.269C9.23449 11.3036 8.52993 12.6218 8.24448 14.0568C7.95904 15.4918 8.10554 16.9792 8.66546 18.331C9.22537 19.6828 10.1736 20.8381 11.3901 21.651C12.6067 22.4639 14.0369 22.8977 15.5001 22.8977C17.4621 22.8977 19.3437 22.1183 20.7311 20.731C22.1184 19.3436 22.8978 17.462 22.8978 15.5ZM25.3637 7.4858C25.3637 7.12002 25.2552 6.76245 25.052 6.45831C24.8488 6.15417 24.56 5.91713 24.222 5.77715C23.8841 5.63717 23.5122 5.60054 23.1535 5.67191C22.7947 5.74327 22.4652 5.91941 22.2065 6.17805C21.9479 6.4367 21.7717 6.76624 21.7004 7.12499C21.629 7.48375 21.6656 7.85561 21.8056 8.19355C21.9456 8.53149 22.1826 8.82033 22.4868 9.02355C22.7909 9.22677 23.1485 9.33523 23.5143 9.33523C24.0048 9.33523 24.4752 9.14038 24.822 8.79355C25.1688 8.44671 25.3637 7.9763 25.3637 7.4858Z" fill="white"/>
</svg>
