<svg width="31" height="31" viewBox="0 0 31 31" fill="none" xmlns="http://www.w3.org/2000/svg">
<path d="M27.3833 29.7944L17.7389 20.15C16.8778 20.8389 15.8875 21.3843 14.7681 21.7861C13.6486 22.188 12.4574 22.3889 11.1944 22.3889C8.06574 22.3889 5.41811 21.3056 3.25156 19.1391C1.08385 16.9714 0 14.3231 0 11.1944C0 8.06574 1.08385 5.41754 3.25156 3.24983C5.41811 1.08328 8.06574 0 11.1944 0C14.3231 0 16.9714 1.08328 19.1391 3.24983C21.3056 5.41754 22.3889 8.06574 22.3889 11.1944C22.3889 12.4574 22.188 13.6486 21.7861 14.7681C21.3843 15.8875 20.8389 16.8778 20.15 17.7389L29.8375 27.4264C30.1532 27.7421 30.3111 28.1296 30.3111 28.5889C30.3111 29.0481 30.1389 29.45 29.7944 29.7944C29.4787 30.1102 29.0769 30.2681 28.5889 30.2681C28.1009 30.2681 27.6991 30.1102 27.3833 29.7944ZM11.1944 18.9444C13.3472 18.9444 15.1774 18.1913 16.6849 16.6849C18.1913 15.1774 18.9444 13.3472 18.9444 11.1944C18.9444 9.04167 18.1913 7.21152 16.6849 5.704C15.1774 4.19763 13.3472 3.44444 11.1944 3.44444C9.04167 3.44444 7.21152 4.19763 5.704 5.704C4.19763 7.21152 3.44444 9.04167 3.44444 11.1944C3.44444 13.3472 4.19763 15.1774 5.704 16.6849C7.21152 18.1913 9.04167 18.9444 11.1944 18.9444Z" fill="#FF9900"/>
</svg>
