<svg width="31" height="31" viewBox="0 0 31 31" fill="none" xmlns="http://www.w3.org/2000/svg">
<path d="M27.5556 0C28.4691 0 29.3452 0.362896 29.9911 1.00885C30.6371 1.65481 31 2.53092 31 3.44444V27.5556C31 28.4691 30.6371 29.3452 29.9911 29.9911C29.3452 30.6371 28.4691 31 27.5556 31H3.44444C2.53092 31 1.65481 30.6371 1.00885 29.9911C0.362896 29.3452 0 28.4691 0 27.5556V3.44444C0 2.53092 0.362896 1.65481 1.00885 1.00885C1.65481 0.362896 2.53092 0 3.44444 0H27.5556ZM26.6944 26.6944V17.5667C26.6944 16.0776 26.1029 14.6496 25.05 13.5967C23.9971 12.5437 22.569 11.9522 21.08 11.9522C19.6161 11.9522 17.9111 12.8478 17.0844 14.1911V12.2794H12.2794V26.6944H17.0844V18.2039C17.0844 16.8778 18.1522 15.7928 19.4783 15.7928C20.1178 15.7928 20.7311 16.0468 21.1832 16.499C21.6354 16.9511 21.8894 17.5644 21.8894 18.2039V26.6944H26.6944ZM6.68222 9.57556C7.44958 9.57556 8.18551 9.27072 8.72812 8.72812C9.27072 8.18551 9.57556 7.44958 9.57556 6.68222C9.57556 5.08056 8.28389 3.77167 6.68222 3.77167C5.9103 3.77167 5.16998 4.07831 4.62415 4.62415C4.07831 5.16998 3.77167 5.9103 3.77167 6.68222C3.77167 8.28389 5.08056 9.57556 6.68222 9.57556ZM9.07611 26.6944V12.2794H4.30556V26.6944H9.07611Z" fill="white"/>
</svg>
