<svg width="31" height="31" viewBox="0 0 31 31" fill="none" xmlns="http://www.w3.org/2000/svg">
<path d="M22.3289 30.6823C10.1921 30.6823 0.317627 20.8078 0.317627 8.67108C0.322216 6.58927 1.08263 4.57995 2.45749 3.01672C3.83235 1.45348 5.72811 0.442691 7.79229 0.172283C8.31849 0.113939 8.84959 0.224726 9.30859 0.488578C9.76758 0.752429 10.1306 1.15563 10.345 1.6397L13.4174 8.80865C13.5768 9.18076 13.6407 9.58679 13.6033 9.98987C13.5659 10.3929 13.4285 10.7803 13.2034 11.1168L10.666 14.9993C11.815 17.3311 13.7082 19.2136 16.0465 20.3493L19.8832 17.7966C20.2193 17.57 20.6076 17.4329 21.0115 17.3981C21.4154 17.3633 21.8214 17.4321 22.1913 17.5979L29.3603 20.655C29.8443 20.8694 30.2475 21.2324 30.5114 21.6914C30.7752 22.1504 30.886 22.6815 30.8277 23.2077C30.5573 25.2719 29.5465 27.1676 27.9833 28.5425C26.42 29.9173 24.4107 30.6778 22.3289 30.6823ZM8.098 2.60269C6.62286 2.79232 5.26742 3.51312 4.28546 4.63014C3.30349 5.74716 2.76234 7.1838 2.76332 8.67108C2.76737 13.8589 4.83004 18.8332 8.49842 22.5016C12.1668 26.1699 17.141 28.2326 22.3289 28.2367C23.8162 28.2376 25.2528 27.6965 26.3698 26.7145C27.4869 25.7326 28.2077 24.3771 28.3973 22.902L21.2283 19.8449L17.4069 22.3976C17.0553 22.63 16.6496 22.7676 16.2291 22.7971C15.8086 22.8266 15.3877 22.7468 15.0071 22.5657C12.1593 21.1881 9.85574 18.8953 8.46485 16.054C8.28147 15.6747 8.19918 15.2545 8.22596 14.834C8.25274 14.4136 8.38768 14.0072 8.61771 13.6542L11.1704 9.77164L8.098 2.60269Z" fill="white"/>
</svg>
